<?xml version="1.0" ?><svg data-name="Layer 1" id="Layer_1" viewBox="0 0 32 32" xmlns="http://www.w3.org/2000/svg"><path d="M13.05463,7.56143A10.54107,10.54107,0,0,0,23.98034,18.48715,10.54107,10.54107,0,0,0,13.05463,29.41284,10.54106,10.54106,0,0,0,2.12893,18.48715,10.54107,10.54107,0,0,0,13.05463,7.56143m0-1.2a1.2,1.2,0,0,0-1.2,1.2,9.30522,9.30522,0,0,1-9.72571,9.72571,1.2,1.2,0,0,0,0,2.4,9.30519,9.30519,0,0,1,9.72571,9.72568,1.2,1.2,0,1,0,2.4,0,9.30519,9.30519,0,0,1,9.72571-9.72568,1.2,1.2,0,0,0,0-2.4,9.30522,9.30522,0,0,1-9.72571-9.72571,1.2,1.2,0,0,0-1.2-1.2Z"/><path d="M24.1506,2.58716a5.51908,5.51908,0,0,0,5.72047,5.72046,5.51908,5.51908,0,0,0-5.72047,5.72046,5.51907,5.51907,0,0,0-5.72046-5.72046A5.51908,5.51908,0,0,0,24.1506,2.58716m0-1.2a1.2,1.2,0,0,0-1.2,1.2A4.325,4.325,0,0,1,18.43014,7.1076a1.2,1.2,0,0,0,0,2.4,4.325,4.325,0,0,1,4.52044,4.52045,1.2,1.2,0,1,0,2.4,0,4.325,4.325,0,0,1,4.52048-4.52045,1.2,1.2,0,0,0,0-2.4,4.325,4.325,0,0,1-4.52048-4.52044,1.2,1.2,0,0,0-1.2-1.2Z"/></svg>